<?xml version="1.0" encoding="UTF-8"?>
<svg width="108px" height="32px" viewBox="0 0 108 32" version="1.1" xmlns="http://www.w3.org/2000/svg" xmlns:xlink="http://www.w3.org/1999/xlink">
    <!-- Generator: Sketch 47.1 (45422) - http://www.bohemiancoding.com/sketch -->
    <title>Group 13</title>
    <desc>Created with Sketch.</desc>
    <defs></defs>
    <g id="Final" stroke="none" stroke-width="1" fill="none" fill-rule="evenodd">
        <g id="final_music_festival_171024-copy" transform="translate(-279.000000, -3914.000000)" fill-rule="nonzero" fill="#00B290">
            <g id="Group-6" transform="translate(279.000000, 3914.000000)">
                <g id="Group-5">
                    <g id="noun_677842_cc">
                        <g id="Group">
                            <g id="Group-13">
                                <path d="M25.5,0.210722909 C14.3771892,0.210722909 4.72410624,6.25622109 0.199247438,15.1198255 C-0.0523797715,15.6168519 -0.0523797715,16.2046463 0.199247438,16.7016727 C4.72138238,25.5722473 14.3731324,31.6289164 25.5,31.6289164 C36.6268091,31.6289164 46.278675,25.5722473 50.8007529,16.7016727 C51.0523801,16.2046463 51.0523801,15.6168519 50.8007529,15.1198255 C46.2758938,6.25622109 36.6228688,0.210722909 25.5000006,0.210722909 L25.5,0.210722909 Z M18.2013205,4.73802473 C14.5752199,7.133952 12.1704545,11.2524684 12.1704545,15.9198255 C12.1704545,20.5872291 14.5752199,24.7056873 18.2013205,27.1016727 C11.9188153,25.2814545 6.74527101,21.1902255 3.76704545,15.9198255 C6.74521364,10.6476684 11.9187574,6.55760291 18.2013205,4.73802473 L18.2013205,4.73802473 Z M32.7986795,4.73802473 C39.0812426,6.55760291 44.2548443,10.6476684 47.2329545,15.9198255 C44.2547284,21.1902255 39.0811847,25.2814545 32.7986795,27.1016727 C36.4247801,24.7056873 38.8295455,20.5872291 38.8295455,15.9198255 C38.8295455,11.2524684 36.4247795,7.133952 32.7986795,4.73802473 Z M25.5,6.02890473 C30.9618688,6.02890473 35.3522727,10.4365265 35.3522727,15.9198255 C35.3522727,21.4031127 30.9618688,25.8107345 25.5,25.8107345 C20.0381318,25.8107345 15.6477273,21.4031127 15.6477273,15.9198255 C15.6477273,10.4365265 20.0381324,6.02890473 25.5,6.02890473 Z" id="Shape"></path>
                                <path d="M82.5,0.210722909 C71.3771892,0.210722909 61.7241062,6.25622109 57.1992474,15.1198255 C56.9476202,15.6168519 56.9476202,16.2046463 57.1992474,16.7016727 C61.7213824,25.5722473 71.3731324,31.6289164 82.5,31.6289164 C93.6268091,31.6289164 103.278675,25.5722473 107.800753,16.7016727 C108.05238,16.2046463 108.05238,15.6168519 107.800753,15.1198255 C103.275894,6.25622109 93.6228688,0.210722909 82.5000006,0.210722909 L82.5,0.210722909 Z M75.2013205,4.73802473 C71.5752199,7.133952 69.1704545,11.2524684 69.1704545,15.9198255 C69.1704545,20.5872291 71.5752199,24.7056873 75.2013205,27.1016727 C68.9188153,25.2814545 63.745271,21.1902255 60.7670455,15.9198255 C63.7452136,10.6476684 68.9187574,6.55760291 75.2013205,4.73802473 L75.2013205,4.73802473 Z M89.7986795,4.73802473 C96.0812426,6.55760291 101.254844,10.6476684 104.232955,15.9198255 C101.254728,21.1902255 96.0811847,25.2814545 89.7986795,27.1016727 C93.4247801,24.7056873 95.8295455,20.5872291 95.8295455,15.9198255 C95.8295455,11.2524684 93.4247795,7.133952 89.7986795,4.73802473 Z M82.5,6.02890473 C87.9618688,6.02890473 92.3522727,10.4365265 92.3522727,15.9198255 C92.3522727,21.4031127 87.9618688,25.8107345 82.5,25.8107345 C77.0381318,25.8107345 72.6477273,21.4031127 72.6477273,15.9198255 C72.6477273,10.4365265 77.0381324,6.02890473 82.5,6.02890473 Z" id="Shape"></path>
                            </g>
                        </g>
                    </g>
                </g>
            </g>
        </g>
    </g>
</svg>