<?xml version="1.0" encoding="UTF-8"?>
<svg width="63px" height="64px" viewBox="0 0 63 64" version="1.1" xmlns="http://www.w3.org/2000/svg" xmlns:xlink="http://www.w3.org/1999/xlink">
    <!-- Generator: Sketch 47.1 (45422) - http://www.bohemiancoding.com/sketch -->
    <title>Page 1 Copy 8</title>
    <desc>Created with Sketch.</desc>
    <defs></defs>
    <g id="Page-1" stroke="none" stroke-width="1" fill="none" fill-rule="evenodd">
        <g id="Artboard" transform="translate(-652.000000, -25.000000)" fill="#FD4227">
            <g id="Page-1-Copy-8" transform="translate(652.000000, 25.000000)">
                <path d="M53.4161247,7.82049982 C49.2368909,10.263437 45.5893587,13.2375779 43.0420513,17.3754153 C41.983803,19.095075 41.1987698,21.0210638 40.5035809,22.9350481 C39.8739343,24.6689632 39.7774621,26.5251753 40.3084273,28.3468741 C40.694316,29.6711322 41.2981877,30.0207663 42.5736825,29.5901011 C44.5104904,28.9358501 46.249199,27.9019535 47.7750796,26.5199233 C48.9364279,25.4680198 50.0616912,24.3733498 51.2142024,23.3109423 C54.2762737,20.4868589 56.4848238,17.0377858 58.2544624,13.2780935 C58.6050026,12.5338079 58.8443419,11.7212462 59.0291856,10.9146868 C59.2847264,9.80050939 59.1683706,8.696836 58.5784911,7.69370118 C58.0541538,6.80085867 57.2330356,6.5337562 56.3434295,7.03569876 C55.7771157,7.35532137 55.2741348,7.7972409 54.7674717,8.21515122 C53.9655007,8.87615479 53.8889121,8.86790163 53.4161247,7.82049982 L53.4161247,7.82049982 Z M62.8571429,11.1030091 C62.7400507,11.7842704 62.6457878,12.4692832 62.5021841,13.1445422 C60.7583206,21.3721985 56.4818781,27.7669017 49.2589838,31.988021 C47.056325,33.2755149 44.643784,33.9672802 42.117833,34.2396347 C39.5035105,34.521743 37.474649,33.5036024 36.0143105,31.3202648 C34.2071141,28.6169778 33.9523097,25.6038219 34.6290878,22.5186383 C36.0621784,15.9866325 39.5307584,10.6873496 44.4861883,6.39420267 C47.5217481,3.76444384 50.9527702,1.78743542 54.7321231,0.430164743 C57.2124156,-0.459676618 59.278835,0.0137550002 61.0160707,2.01177148 C61.1957593,2.21885092 61.365138,2.44093612 61.5072687,2.67652649 C62.0286604,3.5386072 61.9417618,3.77194672 61.0109157,4.12158084 C60.8142892,4.19585934 60.6272362,4.29639791 60.2126268,4.4877213 C62.2724183,5.21775136 62.472727,6.96367113 62.8571429,8.60004887 L62.8571429,11.1030091 Z" id="Fill-1"></path>
                <path d="M8.31204471,61.0469723 C8.87230454,61.7885459 8.42098412,62.207362 7.88740334,62.5908286 C6.27999121,63.7443021 4.53103197,64.2860735 2.5782745,63.8495825 C0.200875656,63.3201066 -0.749935664,61.0915436 0.656642579,59.0458764 C1.38735182,57.9838508 2.36187785,57.0340218 3.39050303,56.2732365 C6.73057055,53.8018369 10.4930562,52.1826705 14.3459541,50.7978876 C19.4772227,48.9535595 24.7945035,48.0014251 30.1836694,47.4681069 C36.2687137,46.8663949 42.3670974,46.6934891 48.4736331,47.0193204 C51.6039737,47.1868469 54.73135,47.4342943 57.7675729,48.3149609 C58.5946231,48.5539551 59.4061106,48.8943873 60.173874,49.2924548 C61.1224621,49.7850441 61.8161171,50.5358393 61.7019901,51.7523273 C61.6167654,52.6660382 60.6400161,53.6227834 59.4831833,53.7995315 C58.6146324,53.9332453 57.7053218,53.9701318 56.8352887,53.864083 C44.9490356,52.4201278 33.1672753,53.0917706 21.4825972,55.7130218 C17.0449836,56.7081905 12.8215435,58.3104505 8.88712623,60.6888653 C8.70852488,60.7972195 8.53214679,60.9101846 8.31204471,61.0469723" id="Fill-4"></path>
                <path d="M10.7623845,47.8198138 C11.2255521,48.4375303 10.9529702,48.8306923 10.4728124,49.1686737 C9.00352961,50.2010114 7.41014445,50.5811446 5.68896346,50.0400678 C3.526776,49.3618059 2.73931723,47.147683 4.10665887,45.2853367 C4.82394073,44.3097125 5.78573372,43.4659086 6.77633617,42.7807491 C9.33594654,41.0119033 12.2087675,39.912889 15.1214785,38.9541255 C20.1387581,37.3010058 25.3133816,36.6802237 30.5530111,36.5928543 C37.8144743,36.4709971 45.0441732,36.8365688 52.1519859,38.5303076 C53.503076,38.8521947 54.8179697,39.3894394 56.0988829,39.9535081 C56.7179171,40.2263457 57.3059257,40.710709 57.7557966,41.238757 C58.6533223,42.294853 58.3726147,43.5885323 57.2017684,44.2959173 C56.4091387,44.7749159 55.5544578,44.7956086 54.6909125,44.6507594 C52.1623277,44.2277079 49.6514719,43.66134 47.1103291,43.3678097 C37.750207,42.2848898 28.4159396,42.2825906 19.1651458,44.4331025 C16.2354446,45.11443 13.4896808,46.2916168 10.7623845,47.8198138" id="Fill-7"></path>
                <path d="M34.8799956,0.0120879276 C34.0387547,-0.217103313 18.6750782,2.88476649 17.9742892,3.2170567 C17.4566025,3.46182405 16.5418266,4.37858901 10.564163,13.1553526 C10.1538374,13.7576286 9.87808101,14.163349 9.81704692,14.2456799 C9.75086539,14.3302359 9.68909595,14.4044078 9.63320932,14.4719042 C9.02875126,15.2002725 8.83756015,15.7335686 9.29936022,16.9722397 C9.31112583,17.0026502 10.6060779,20.033315 12.2716467,20.0325733 L12.2834123,20.0325733 C12.9989082,20.0266395 14.0901683,19.4236218 16.1182647,18.1582488 L17.0918687,17.5589397 C17.9713478,17.0167429 18.3353463,16.7927437 19.2295324,16.617698 C20.8752467,16.2972753 23.9365105,15.6994496 24.9093791,16.6859361 C25.2726422,17.0553123 25.3608843,17.7258265 25.1711639,18.6804191 C24.9270275,19.906481 21.0583489,26.106512 14.981413,28.7017876 C12.517989,29.7550289 9.79572176,30.3862319 7.31759082,30.4796886 C6.79843341,30.4989733 6.45061266,30.3891988 5.97189953,30.2371464 C5.62113738,30.1244051 5.22257744,29.9975711 4.7188624,29.9182071 C4.63356175,29.9048562 4.52399454,29.8566444 4.40780917,29.8054658 C4.11587505,29.6771484 3.62907307,29.4635332 3.10109146,29.7357442 C2.58781686,30.0005379 2.41353881,30.5382844 2.3186786,30.9773822 C2.13337029,31.8355513 2.74371115,32.8487398 3.78790876,34.2046025 L3.93277279,34.3937409 C5.0630064,35.9179739 7.21317106,36.5714286 8.96992323,36.5714286 C9.08684395,36.5714286 9.20229397,36.5684617 9.31480258,36.5625279 C9.43540005,36.5565942 21.8562041,35.3001218 27.557376,27.1909055 C30.4752465,23.0409865 31.097353,18.8361802 29.3104514,15.3508415 C28.1566866,13.1012071 25.43589,11.8350924 23.2746951,11.3997032 C22.4238947,11.2291078 21.7326653,11.2713858 21.0017269,11.3166306 C20.8281842,11.3270147 20.6487587,11.3388822 20.4597737,11.3470411 C20.2612291,11.3559418 19.7663382,11.4100873 19.3280694,11.4590407 C19.0287817,11.4924181 18.7589081,11.5235703 18.6677247,11.5280206 C18.4434428,11.5369213 17.9875255,11.6014508 17.2867366,11.7082584 C18.0566485,10.5630439 19.2082073,9.07886374 19.6817729,8.75102385 C21.031141,8.53518355 33.7997658,6.47765442 34.5762959,6.24697974 L34.8579351,6.16613234 C36.0521442,5.8286501 36.347755,5.45408189 36.5227684,4.0581663 C36.6838102,2.77202517 36.5190917,0.472695567 34.8799956,0.0120879276" id="Fill-9"></path>
            </g>
        </g>
    </g>
</svg>