<?xml version="1.0" encoding="UTF-8"?>
<svg width="62px" height="88px" viewBox="0 0 62 88" version="1.1" xmlns="http://www.w3.org/2000/svg" xmlns:xlink="http://www.w3.org/1999/xlink">
    <!-- Generator: Sketch 47.1 (45422) - http://www.bohemiancoding.com/sketch -->
    <title>Fill 1</title>
    <desc>Created with Sketch.</desc>
    <defs></defs>
    <g id="Final" stroke="none" stroke-width="1" fill="none" fill-rule="evenodd">
        <g id="final_music_festival_171024-copy" transform="translate(-1026.000000, -4096.000000)" fill="#00B290">
            <g id="Group-6" transform="translate(279.000000, 3914.000000)">
                <g id="Group-4" transform="translate(113.000000, 79.000000)">
                    <path d="M661.999376,111.557459 C661.999376,111.662555 661.999376,111.662555 661.89428,111.767651 L656.114002,136.675395 C652.750931,139.40789 649.072572,142.350577 646.865557,144.032112 L654.32737,117.968313 L654.32737,117.863217 L657.164961,107.984196 C657.270057,107.668908 657.795537,106.302661 658.636305,105.882277 C658.846497,105.777181 659.371977,105.566989 660.528032,105.987373 C663.365623,107.35362 661.999376,111.347267 661.999376,111.557459 L661.999376,111.557459 Z M640.244511,121.121192 C641.715854,120.700808 642.34643,121.43648 642.556622,121.856863 L642.556622,121.961959 L641.610759,144.557592 L638.562976,123.012919 C638.562976,122.592535 638.878263,121.541576 640.244511,121.121192 L640.244511,121.121192 Z M647.180845,109.875923 C647.391037,109.665731 647.706325,109.560635 648.231804,109.560635 L648.757284,109.560635 C650.43882,109.770827 650.859204,112.293131 650.859204,112.608418 L650.9643,117.232641 L645.604405,135.834627 L646.550269,111.452363 C646.550269,111.347267 646.655365,110.296307 647.180845,109.875923 L647.180845,109.875923 Z M679.34021,146.239128 C679.235114,146.344224 679.235114,146.44932 679.235114,146.554415 L676.607715,154.121325 C676.397523,154.751901 674.295604,159.796507 667.674558,157.484396 C666.308311,157.064012 664.942063,153.700941 664.311487,151.178638 L670.617245,142.981153 L680.075882,145.293264 C679.760594,145.608552 679.550402,145.92384 679.34021,146.239128 L679.34021,146.239128 Z M665.993023,187.85713 C666.308311,187.33165 670.091765,183.232908 673.034452,181.656468 C682.913473,176.086382 684.069529,170.831584 685.225584,168.204184 L688.378463,162.108618 C688.483559,161.898427 688.588655,161.688235 688.588655,161.478043 L692.37211,148.235951 L692.37211,147.815567 C692.37211,147.500279 692.056822,145.293264 689.114135,143.82192 C690.165095,142.876057 690.795671,141.509809 690.795671,139.93337 C690.795671,135.729531 687.117312,133.732708 685.225584,133.312324 L669.986669,129.318677 C668.725518,128.688101 666.203215,128.372813 663.891103,130.369637 C663.155432,131.000213 661.999376,131.946076 660.633128,133.102132 L665.362447,112.713514 C666.203215,110.086115 666.623598,104.831317 661.999376,102.93959 C659.792361,101.993726 658.110825,102.309014 657.164961,102.834494 C654.747754,103.990549 653.906987,106.82814 653.801891,107.143428 L653.276411,108.93006 C652.435643,107.563812 651.174491,106.407756 649.177668,106.092469 C646.970653,105.777181 645.604405,106.512852 644.868733,107.248524 C642.977006,108.824964 642.977006,111.242171 642.977006,111.452363 L642.766814,117.653025 C641.82095,117.337737 640.664895,117.232641 639.193551,117.653025 C635.83048,118.703985 634.989713,121.646672 634.989713,123.118015 L634.989713,123.328207 L639.824127,156.643628 C639.719031,157.799684 639.719031,158.955739 639.824127,160.216891 L640.244511,186.911266 L643.817774,186.911266 L643.39739,160.216891 L643.39739,160.111795 C642.661718,151.91431 646.760461,148.761431 646.970653,148.656335 C646.970653,148.656335 647.075749,148.656335 647.075749,148.551239 C647.706325,148.025759 662.104472,136.570299 666.203215,132.997036 C667.254174,132.051172 668.41023,132.471556 668.515326,132.576652 C668.620422,132.681748 668.725518,132.681748 668.830614,132.681748 L684.279721,136.780491 C684.384817,136.780491 687.222408,137.516162 687.222408,139.93337 C687.222408,140.669041 686.90712,141.089425 686.696928,141.299617 C685.645968,142.245481 683.228761,142.245481 682.387993,142.140385 L670.301957,139.197698 C669.671381,138.987506 668.93571,139.302794 668.515326,139.828274 L660.948416,149.602199 C660.633128,150.022582 660.528032,150.548062 660.633128,151.073542 C660.677269,151.383575 662.640461,157.425542 664.931553,159.592621 C668.076025,162.568939 671.884702,161.826961 672.614068,161.583139 C674.505796,161.267851 675.977139,160.427083 676.923003,159.481219 C678.919826,157.799684 679.760594,155.592669 679.86569,155.382477 L682.387993,147.920663 C682.703281,147.500279 683.859337,146.028936 686.171448,146.659511 C688.063176,147.079895 688.483559,147.920663 688.693751,148.130855 L684.910297,160.742371 L681.862514,166.627745 C681.862514,166.627745 680.496266,173.353887 671.352917,178.503589 C667.149078,180.55296 665.608371,182.682205 663.470719,185.106769 L665.993023,187.85713 Z" id="Fill-1" transform="translate(663.680911, 145.094824) scale(-1, 1) rotate(-10.000000) translate(-663.680911, -145.094824) "></path>
                </g>
            </g>
        </g>
    </g>
</svg>